<svg width="31" height="31" viewBox="0 0 31 31" fill="none" xmlns="http://www.w3.org/2000/svg">
<path d="M31.0001 21.8912C31.0001 27.5067 27.6524 30.8544 22.0368 30.8544H20.201C19.3525 30.8544 18.6583 30.1602 18.6583 29.3117V20.4102C18.6583 19.9937 18.9977 19.6388 19.4142 19.6388L22.1294 19.5926C22.3454 19.5771 22.5305 19.4229 22.5768 19.2069L23.1167 16.2603C23.163 15.9826 22.9471 15.7203 22.6539 15.7203L19.3679 15.7666C18.936 15.7666 18.5966 15.4272 18.5811 15.0107L18.5194 11.231C18.5194 10.9842 18.72 10.7682 18.9823 10.7682L22.6848 10.7065C22.9471 10.7065 23.1476 10.5059 23.1476 10.2437L23.0859 6.54112C23.0859 6.27886 22.8853 6.07832 22.6231 6.07832L18.4577 6.14005C15.8968 6.18633 13.8604 8.28441 13.9067 10.8453L13.9838 15.0878C13.9993 15.5198 13.6599 15.8592 13.2279 15.8746L11.3766 15.9055C11.1144 15.9055 10.9138 16.106 10.9138 16.3683L10.9601 19.2994C10.9601 19.5617 11.1607 19.7623 11.4229 19.7623L13.2742 19.7314C13.7062 19.7314 14.0455 20.0708 14.061 20.4873L14.1998 29.2808C14.2152 30.1448 13.521 30.8544 12.6571 30.8544H9.10884C3.49333 30.8544 0.14563 27.5067 0.14563 21.8758V8.96321C0.14563 3.3477 3.49333 0 9.10884 0H22.0368C27.6524 0 31.0001 3.3477 31.0001 8.96321V21.8912Z" fill="#C4C4C4"/>
</svg>
