<svg width="31" height="31" viewBox="0 0 31 31" fill="none" xmlns="http://www.w3.org/2000/svg">
<path d="M31 21.8912C31 27.5067 27.6523 30.8544 22.0368 30.8544H20.2009C19.3524 30.8544 18.6582 30.1602 18.6582 29.3117V20.4102C18.6582 19.9937 18.9976 19.6388 19.4142 19.6388L22.1293 19.5926C22.3453 19.5771 22.5305 19.4229 22.5767 19.2069L23.1167 16.2603C23.163 15.9826 22.947 15.7203 22.6539 15.7203L19.3679 15.7666C18.9359 15.7666 18.5965 15.4272 18.5811 15.0107L18.5194 11.231C18.5194 10.9842 18.7199 10.7682 18.9822 10.7682L22.6847 10.7065C22.947 10.7065 23.1475 10.5059 23.1475 10.2437L23.0858 6.54112C23.0858 6.27886 22.8853 6.07832 22.623 6.07832L18.4577 6.14005C15.8968 6.18633 13.8604 8.28441 13.9066 10.8453L13.9838 15.0878C13.9992 15.5198 13.6598 15.8592 13.2278 15.8746L11.3766 15.9055C11.1143 15.9055 10.9138 16.106 10.9138 16.3683L10.9601 19.2994C10.9601 19.5617 11.1606 19.7623 11.4229 19.7623L13.2741 19.7314C13.7061 19.7314 14.0455 20.0708 14.0609 20.4873L14.1998 29.2808C14.2152 30.1448 13.521 30.8544 12.657 30.8544H9.10878C3.49327 30.8544 0.145569 27.5067 0.145569 21.8758V8.96321C0.145569 3.3477 3.49327 0 9.10878 0H22.0368C27.6523 0 31 3.3477 31 8.96321V21.8912Z" fill="#C4C4C4"/>
</svg>
