<svg width="31" height="31" viewBox="0 0 31 31" fill="none" xmlns="http://www.w3.org/2000/svg">
<path d="M21.9021 0H8.96768C3.34937 0 0 3.34937 0 8.96768V21.8867C0 27.5204 3.34937 30.8698 8.96768 30.8698H21.8867C27.505 30.8698 30.8544 27.5204 30.8544 21.9021V8.96768C30.8698 3.34937 27.5204 0 21.9021 0ZM15.4349 21.4236C12.1318 21.4236 9.44616 18.738 9.44616 15.4349C9.44616 12.1318 12.1318 9.44616 15.4349 9.44616C18.738 9.44616 21.4236 12.1318 21.4236 15.4349C21.4236 18.738 18.738 21.4236 15.4349 21.4236ZM24.5724 7.53223C24.4952 7.71745 24.3871 7.88724 24.2482 8.04158C24.0939 8.1805 23.9241 8.28854 23.7389 8.36572C23.5537 8.44289 23.353 8.4892 23.1524 8.4892C22.7356 8.4892 22.3497 8.33485 22.0565 8.04158C21.9176 7.88724 21.8095 7.71745 21.7323 7.53223C21.6552 7.34701 21.6089 7.14636 21.6089 6.94571C21.6089 6.74505 21.6552 6.5444 21.7323 6.35918C21.8095 6.15853 21.9176 6.00418 22.0565 5.84983C22.4115 5.49483 22.9517 5.32504 23.4456 5.43309C23.5537 5.44852 23.6463 5.47939 23.7389 5.5257C23.8315 5.55657 23.9241 5.60287 24.0167 5.66461C24.0939 5.71091 24.1711 5.78809 24.2482 5.84983C24.3871 6.00418 24.4952 6.15853 24.5724 6.35918C24.6495 6.5444 24.6958 6.74505 24.6958 6.94571C24.6958 7.14636 24.6495 7.34701 24.5724 7.53223Z" fill="#C4C4C4"/>
</svg>
