<svg width="31" height="31" viewBox="0 0 31 31" fill="none" xmlns="http://www.w3.org/2000/svg">
<path d="M30.9999 21.8912C30.9999 27.5067 27.6522 30.8544 22.0367 30.8544H20.2009C19.3524 30.8544 18.6582 30.1602 18.6582 29.3117V20.4102C18.6582 19.9937 18.9976 19.6388 19.4141 19.6388L22.1293 19.5926C22.3453 19.5771 22.5304 19.4229 22.5767 19.2069L23.1166 16.2603C23.1629 15.9826 22.9469 15.7203 22.6538 15.7203L19.3678 15.7666C18.9359 15.7666 18.5965 15.4272 18.581 15.0107L18.5193 11.231C18.5193 10.9842 18.7199 10.7682 18.9821 10.7682L22.6847 10.7065C22.9469 10.7065 23.1475 10.5059 23.1475 10.2437L23.0858 6.54112C23.0858 6.27886 22.8852 6.07832 22.623 6.07832L18.4576 6.14005C15.8967 6.18633 13.8603 8.28441 13.9066 10.8453L13.9837 15.0878C13.9991 15.5198 13.6597 15.8592 13.2278 15.8746L11.3765 15.9055C11.1143 15.9055 10.9137 16.106 10.9137 16.3683L10.96 19.2994C10.96 19.5617 11.1605 19.7623 11.4228 19.7623L13.2741 19.7314C13.706 19.7314 14.0454 20.0708 14.0609 20.4873L14.1997 29.2808C14.2151 30.1448 13.5209 30.8544 12.657 30.8544H9.10872C3.49321 30.8544 0.145508 27.5067 0.145508 21.8758V8.96321C0.145508 3.3477 3.49321 0 9.10872 0H22.0367C27.6522 0 30.9999 3.3477 30.9999 8.96321V21.8912Z" fill="#C4C4C4"/>
</svg>
