<svg width="60" height="60" viewBox="0 0 60 60" fill="none" xmlns="http://www.w3.org/2000/svg">
<path d="M9 25.6297H7.242V28.6297H9V40.83H16.3245C16.986 43.2645 19.2098 45.0622 21.8505 45.0622C24.4913 45.0622 26.715 43.2645 27.3772 40.83H41.8493C42.5107 43.2645 44.7345 45.0622 47.3753 45.0622C50.016 45.0622 52.2398 43.2645 52.9013 40.83H56.25V26.2372L51.6548 17.046H40.8293V11.6827H9V18.1297H3.75V21.1297H9V25.6297ZM21.8505 42.0622C20.3438 42.0622 19.1182 40.8367 19.1182 39.33C19.1182 37.8232 20.3438 36.5977 21.8505 36.5977C23.3573 36.5977 24.5828 37.8232 24.5828 39.33C24.5828 40.8367 23.3573 42.0622 21.8505 42.0622ZM47.3753 42.0622C45.8685 42.0622 44.643 40.8367 44.643 39.33C44.643 37.8232 45.8685 36.5977 47.3753 36.5977C48.8812 36.5977 50.1075 37.8232 50.1075 39.33C50.1075 40.8367 48.8812 42.0622 47.3753 42.0622ZM52.323 25.0912H46.5V20.046H49.8L52.323 25.0912ZM43.5 20.046V28.0912H53.25V37.83H52.9013C52.2398 35.3955 50.016 33.5977 47.3753 33.5977C44.7345 33.5977 42.5107 35.3955 41.8485 37.83H40.83V20.046H43.5ZM12 14.6827H37.83V37.83H27.3765C26.7142 35.3955 24.4912 33.5977 21.8498 33.5977C19.2082 33.5977 16.9852 35.3955 16.3237 37.83H12V28.6297H18.258V25.6297H12V21.1297H14.766V18.1297H12V14.6827ZM5.25 45.3172H16.266V48.3172H5.25V45.3172Z" fill="#407FC9"/>
</svg>
