<svg width="50" height="50" viewBox="0 0 50 50" fill="none" xmlns="http://www.w3.org/2000/svg">
<g clip-path="url(#clip0_1_121)">
<path d="M5.17707 20.5373L20.3861 36.7716L13.0623 20.5373H5.17707ZM25 39.3838L33.52 20.5373H16.4801L25 39.3838ZM13.1356 17.4125L18.1157 8.03813H11.7196L4.68882 17.4125H13.1355H13.1356ZM29.614 36.7716L44.8229 20.5373H36.9377L29.614 36.7716ZM16.6753 17.4125H33.3247L28.3445 8.03813H21.6555L16.6753 17.4125ZM36.8645 17.4125H45.3112L38.2804 8.03813H31.8844L36.8645 17.4125ZM40.3066 5.54807L49.681 18.0473C49.9089 18.3402 50.0147 18.6779 49.9984 19.0604C49.9821 19.4428 49.8438 19.7724 49.5834 20.0491L26.1474 45.0475C25.8544 45.373 25.472 45.5357 25 45.5357C24.528 45.5357 24.1456 45.373 23.8526 45.0475L0.416639 20.0491C0.156241 19.7724 0.0179036 19.4428 0.0016276 19.0604C-0.0146484 18.6779 0.0911458 18.3402 0.31901 18.0473L9.6934 5.5481C9.98635 5.12492 10.4014 4.91333 10.9384 4.91333H39.0616C39.5987 4.91333 40.0137 5.12489 40.3066 5.54807Z" fill="#407FC9"/>
</g>
<defs>
<clipPath id="clip0_1_121">
<rect width="50" height="50" fill="white"/>
</clipPath>
</defs>
</svg>
