<svg width="91" height="27" viewBox="0 0 91 27" fill="none" xmlns="http://www.w3.org/2000/svg">
<path d="M13.5 0L16.5309 9.32827H26.3393L18.4042 15.0935L21.4351 24.4217L13.5 18.6565L5.5649 24.4217L8.59584 15.0935L0.660737 9.32827H10.4691L13.5 0Z" fill="#FFEF63"/>
<path d="M45.5 0L48.5309 9.32827H58.3393L50.4042 15.0935L53.4351 24.4217L45.5 18.6565L37.5649 24.4217L40.5958 15.0935L32.6607 9.32827H42.4691L45.5 0Z" fill="#FFEF63"/>
<path d="M77.5 0L80.5309 9.32827H90.3393L82.4042 15.0935L85.4351 24.4217L77.5 18.6565L69.5649 24.4217L72.5958 15.0935L64.6607 9.32827H74.4691L77.5 0Z" fill="#FFEF63"/>
</svg>
