<svg width="49" height="49" viewBox="0 0 49 49" fill="none" xmlns="http://www.w3.org/2000/svg">
<circle cx="24.5" cy="24.5" r="24.5" fill="#E4EDF8"/>
<path d="M33 16H17C15.9 16 15.01 16.9 15.01 18L15 30C15 31.1 15.9 32 17 32H33C34.1 32 35 31.1 35 30V18C35 16.9 34.1 16 33 16ZM32.6 20.25L25.53 24.67C25.21 24.87 24.79 24.87 24.47 24.67L17.4 20.25C17.15 20.09 17 19.82 17 19.53C17 18.86 17.73 18.46 18.3 18.81L25 23L31.7 18.81C32.27 18.46 33 18.86 33 19.53C33 19.82 32.85 20.09 32.6 20.25Z" fill="#407FC9"/>
</svg>
