<svg width="71" height="71" viewBox="0 0 71 71" fill="none" xmlns="http://www.w3.org/2000/svg">
<path d="M7.65469 21.7437C9.42969 18.0828 11.9813 14.8656 15.0875 12.0922C17.75 13.5344 25.9594 17.4172 36.4984 17.4172C43.4875 17.4172 50.0328 15.6422 56.0234 12.3141C59.1297 15.0875 61.6813 18.5266 63.4562 22.1875C36.3875 37.275 11.7594 24.1844 7.65469 21.7437ZM17.1953 10.4281C22.5203 6.54531 28.8438 4.4375 35.5 4.4375C42.2672 4.4375 48.5906 6.54531 54.0266 10.65C38.0516 19.0813 22.5203 13.0906 17.1953 10.4281ZM66.3406 38.9391C40.7141 53.3609 10.9828 41.8234 4.65937 39.05C4.54844 37.8297 4.4375 36.6094 4.4375 35.5C4.4375 31.5063 5.21406 27.6234 6.65625 23.9625C9.7625 25.7375 21.3 31.7281 36.4984 31.7281C46.2609 31.7281 55.5797 29.2875 64.4547 24.4062C65.7859 27.9562 66.5625 31.7281 66.5625 35.5C66.5625 36.6094 66.4516 37.8297 66.3406 38.9391ZM65.8969 41.9344C65.1203 45.5953 63.6781 49.0344 61.6812 52.2516C37.6078 67.2281 12.6469 54.0266 9.42969 52.2516C7.32188 49.0344 5.99062 45.5953 5.21406 41.8234C10.65 44.0422 23.1859 48.3687 37.9406 48.3687C48.1469 48.4797 57.5766 46.2609 65.8969 41.9344ZM57.9094 57.0219C52.0297 63.1234 44.0422 66.5625 35.5 66.5625C26.7359 66.5625 18.5266 62.9016 12.6469 56.4672C17.8609 58.6859 26.5141 61.6812 36.8312 61.6812C44.2641 61.6812 51.3641 60.1281 57.9094 57.0219Z" fill="#407FC9"/>
</svg>
