<svg width="18" height="18" viewBox="0 0 18 18" fill="none" xmlns="http://www.w3.org/2000/svg">
<path d="M8.91159 16.1799L8.91165 16.1798L8.90519 16.1736L2.63733 10.1267L2.62064 10.1106L2.60253 10.0961C2.56065 10.0626 2.4861 9.99374 2.37245 9.87684C2.27389 9.77546 2.10143 9.57326 1.84691 9.25511C1.60583 8.95376 1.39107 8.64566 1.20218 8.33085C1.02468 8.03502 0.859587 7.66534 0.710724 7.21559C0.568203 6.78499 0.5 6.376 0.5 5.98654C0.5 4.61371 0.892936 3.60368 1.62497 2.88893C2.35916 2.17209 3.396 1.78564 4.80134 1.78564C5.15784 1.78564 5.52804 1.84733 5.91387 1.97595C6.3056 2.10652 6.66806 2.28193 7.0026 2.50195C7.36487 2.7402 7.67144 2.96043 7.92426 3.16269C8.1778 3.36552 8.4185 3.58089 8.64645 3.80884L9 4.16239L9.35355 3.80884C9.5815 3.58089 9.8222 3.36552 10.0757 3.16269C10.3286 2.96043 10.6351 2.7402 10.9974 2.50195C11.3319 2.28193 11.6944 2.10652 12.0861 1.97595C12.472 1.84733 12.8422 1.78564 13.1987 1.78564C14.604 1.78564 15.6408 2.17209 16.375 2.88893C17.1071 3.60368 17.5 4.61371 17.5 5.98654C17.5 7.28194 16.8304 8.66779 15.3495 10.1498L9.09512 16.1733L9.09506 16.1732L9.08841 16.1799C9.06387 16.2044 9.04468 16.2142 9 16.2142C8.95532 16.2142 8.93613 16.2044 8.91159 16.1799Z" stroke="black"/>
</svg>
