<svg width="64" height="64" viewBox="0 0 64 64" fill="none" xmlns="http://www.w3.org/2000/svg">
<path d="M62 7.99996C61.9913 6.50159 61.4223 5.06068 60.4049 3.96066C59.3875 2.86064 57.9953 2.18112 56.5021 2.05575C55.009 1.93038 53.523 2.36824 52.3363 3.2832C51.1497 4.19817 50.3484 5.52401 50.09 6.99996H37.91C37.7619 6.10902 37.4146 5.26301 36.8939 4.52502C36.3732 3.78702 35.6927 3.1761 34.903 2.73779C34.1133 2.29949 33.2349 2.04511 32.3332 1.99364C31.4315 1.94217 30.5298 2.09492 29.6954 2.44052C28.8609 2.78611 28.1153 3.31563 27.514 3.98958C26.9128 4.66352 26.4714 5.46451 26.2229 6.33282C25.9743 7.20112 25.925 8.11432 26.0786 9.00434C26.2323 9.89435 26.5848 10.7382 27.11 11.473L11.47 27.113C10.7353 26.5864 9.89118 26.2326 9.0006 26.078C8.11001 25.9234 7.19601 25.9721 6.32686 26.2203C5.45772 26.4685 4.65588 26.9099 3.98126 27.5115C3.30663 28.1131 2.77665 28.8594 2.43089 29.6945C2.08513 30.5297 1.93254 31.4322 1.9845 32.3346C2.03647 33.237 2.29165 34.116 2.73099 34.9059C3.17033 35.6959 3.78247 36.3764 4.52169 36.8965C5.26091 37.4167 6.10811 37.7631 7.00001 37.91V50.09C5.91331 50.2723 4.8978 50.7503 4.06485 51.4716C3.23189 52.193 2.61366 53.1298 2.27795 54.1792C1.94224 55.2287 1.90201 56.3504 2.16169 57.4213C2.42136 58.4921 2.97091 59.4708 3.75005 60.2499C4.5292 61.0291 5.50786 61.5786 6.57871 61.8383C7.64955 62.098 8.77123 62.0577 9.82072 61.722C10.8702 61.3863 11.807 60.7681 12.5283 59.9351C13.2497 59.1022 13.7277 58.0867 13.91 57H26.09C26.2381 57.8909 26.5854 58.7369 27.1061 59.4749C27.6268 60.2129 28.3073 60.8238 29.097 61.2621C29.8867 61.7004 30.7651 61.9548 31.6668 62.0063C32.5685 62.0578 33.4702 61.905 34.3047 61.5594C35.1391 61.2138 35.8847 60.6843 36.486 60.0103C37.0873 59.3364 37.5286 58.5354 37.7771 57.6671C38.0257 56.7988 38.075 55.8856 37.9214 54.9956C37.7678 54.1056 37.4152 53.2617 36.89 52.527L52.53 36.887C53.2647 37.4135 54.1088 37.7673 54.9994 37.9219C55.89 38.0765 56.804 38.0278 57.6731 37.7796C58.5423 37.5314 59.3441 37.09 60.0188 36.4884C60.6934 35.8868 61.2234 35.1405 61.5691 34.3054C61.9149 33.4702 62.0675 32.5678 62.0155 31.6653C61.9635 30.7629 61.7084 29.8839 61.269 29.094C60.8297 28.304 60.2175 27.6236 59.4783 27.1034C58.7391 26.5832 57.8919 26.2368 57 26.09V13.91C58.3971 13.6738 59.6655 12.9509 60.5806 11.8692C61.4958 10.7875 61.9986 9.41684 62 7.99996ZM26.09 55H13.91C13.7024 53.7732 13.1182 52.6414 12.2384 51.7616C11.3586 50.8818 10.2268 50.2975 9.00001 50.09V37.91C10.0018 37.7424 10.9445 37.3227 11.7394 36.6905C12.5343 36.0582 13.1553 35.2341 13.5441 34.2958C13.9328 33.3574 14.0764 32.3356 13.9615 31.3264C13.8466 30.3172 13.4768 29.3539 12.887 28.527L28.527 12.887C29.3539 13.4768 30.3173 13.8465 31.3264 13.9614C32.3356 14.0764 33.3574 13.9327 34.2958 13.544C35.2342 13.1553 36.0582 12.5343 36.6905 11.7393C37.3228 10.9444 37.7424 10.0017 37.91 8.99996H50.09C50.2976 10.2268 50.8818 11.3586 51.7616 12.2384C52.6414 13.1182 53.7732 13.7024 55 13.91V26.09C53.9982 26.2576 53.0555 26.6772 52.2606 27.3095C51.4657 27.9417 50.8447 28.7658 50.456 29.7042C50.0672 30.6425 49.9236 31.6644 50.0385 32.6735C50.1535 33.6827 50.5232 34.646 51.113 35.473L35.473 51.113C34.6461 50.5232 33.6827 50.1534 32.6736 50.0385C31.6644 49.9235 30.6426 50.0672 29.7042 50.4559C28.7658 50.8446 27.9418 51.4657 27.3095 52.2606C26.6773 53.0555 26.2576 53.9982 26.09 55Z" fill="#407FC9"/>
</svg>
