<svg width="71" height="71" viewBox="0 0 71 71" fill="none" xmlns="http://www.w3.org/2000/svg">
<path d="M9.94548 46.7268L2.66798 54.0043C2.37894 54.2865 2.17245 54.6424 2.07078 55.0334C1.96912 55.4244 1.97615 55.8357 2.09111 56.223C2.19148 56.6012 2.39006 56.9461 2.66671 57.2227C2.94337 57.4994 3.28826 57.698 3.66642 57.7983L11.0549 59.8174L13.1183 67.1393C13.2187 67.5174 13.4172 67.8623 13.6939 68.139C13.9706 68.4156 14.3155 68.6142 14.6936 68.7146C14.9044 68.764 15.1206 68.7864 15.337 68.7812C15.629 68.7828 15.9185 68.7269 16.1888 68.6165C16.4592 68.506 16.705 68.3433 16.9124 68.1377L26.4308 58.5749C19.7684 56.574 13.9659 52.4037 9.94548 46.7268ZM67.9436 54.0043L60.6661 46.7268C56.6457 52.4037 50.8432 56.574 44.1808 58.5749L53.7214 68.1377C53.9287 68.3433 54.1746 68.506 54.4449 68.6165C54.7153 68.7269 55.0047 68.7828 55.2967 68.7812C55.4884 68.803 55.6819 68.803 55.8736 68.7812C56.2518 68.6808 56.5967 68.4822 56.8733 68.2055C57.15 67.9289 57.3485 67.584 57.4489 67.2058L59.468 59.8174L66.9452 57.6874C67.3247 57.5886 67.6713 57.391 67.9496 57.1146C68.2279 56.8383 68.4279 56.4931 68.5294 56.1143C68.6309 55.7355 68.6301 55.3365 68.5272 54.958C68.4243 54.5796 68.2229 54.2352 67.9436 53.9599V54.0043ZM37.9017 27.8452L35.3058 23.9624L32.7099 27.8452C32.4099 28.2957 31.9557 28.621 31.4326 28.7599C30.9096 28.8989 30.3538 28.8418 29.8699 28.5996L24.7889 26.0702L26.1424 35.4999H44.4692L45.8227 26.0702L40.7417 28.5996C40.2578 28.8418 39.702 28.8989 39.179 28.7599C38.6559 28.621 38.2017 28.2957 37.9017 27.8452Z" fill="#407FC9"/>
<path d="M62.25 28.8438C62.25 23.5778 60.6885 18.4302 57.7629 14.0517C54.8373 9.67324 50.679 6.26065 45.814 4.24547C40.9489 2.23029 35.5955 1.70302 30.4307 2.73035C25.266 3.75769 20.5219 6.29347 16.7983 10.017C13.0747 13.7406 10.5389 18.4847 9.5116 23.6495C8.48427 28.8142 9.01154 34.1676 11.0267 39.0327C13.0419 43.8978 16.4545 48.056 20.833 50.9816C25.2114 53.9072 30.3591 55.4688 35.625 55.4688C42.6864 55.4688 49.4586 52.6636 54.4517 47.6705C59.4449 42.6773 62.25 35.9052 62.25 28.8438ZM51.1563 22.4981L48.9375 38.0294C48.8622 38.5625 48.5955 39.05 48.1873 39.4011C47.7791 39.7522 47.2571 39.9428 46.7188 39.9375H24.5313C23.9929 39.9428 23.4709 39.7522 23.0627 39.4011C22.6545 39.05 22.3879 38.5625 22.3125 38.0294L20.0938 22.4981C20.0521 22.1028 20.1175 21.7034 20.283 21.342C20.4486 20.9805 20.7082 20.6702 21.0347 20.4434C21.3613 20.2166 21.7428 20.0817 22.1393 20.0529C22.5358 20.024 22.9328 20.1023 23.2888 20.2794L30.4109 23.8294L33.7613 18.815C33.9642 18.513 34.2384 18.2655 34.5595 18.0944C34.8806 17.9233 35.2389 17.8338 35.6028 17.8338C35.9667 17.8338 36.325 17.9233 36.6462 18.0944C36.9673 18.2655 37.2414 18.513 37.4444 18.815L40.7947 23.8294L47.9169 20.2794C48.2728 20.1023 48.6698 20.024 49.0663 20.0529C49.4629 20.0817 49.8443 20.2166 50.1709 20.4434C50.4975 20.6702 50.7571 20.9805 50.9226 21.342C51.0882 21.7034 51.1535 22.1028 51.1119 22.4981H51.1563Z" fill="#407FC9"/>
</svg>
