<svg width="54" height="54" viewBox="0 0 54 54" fill="none" xmlns="http://www.w3.org/2000/svg">
<path d="M20.3389 3.3952C14.76 3.3952 10.2139 7.94133 10.2139 13.5202V20.2702C10.2139 23.4765 11.7394 26.3114 14.0715 28.1677C6.83889 30.7057 1.49626 37.4287 1.24651 45.5354C1.23644 45.9958 1.40771 46.4417 1.72339 46.777C2.03907 47.1122 2.47386 47.31 2.93401 47.3276H29.6168C29.3624 46.904 29.2026 46.4305 29.1484 45.9394C29.0942 45.4483 29.1469 44.9513 29.3029 44.4824L29.5121 43.9526H5.04339C6.16051 36.1259 12.7721 30.2096 20.8654 30.4526C22.4529 30.5223 24.0192 30.8436 25.506 31.4043C25.81 30.8914 26.2419 30.4662 26.7596 30.1704C27.2773 29.8746 27.8629 29.7183 28.4591 29.7168H29.8294C28.7791 29.119 27.6779 28.6153 26.5388 28.2116C27.7537 27.2736 28.7385 26.0707 29.4181 24.6945C30.0978 23.3183 30.4543 21.8051 30.4605 20.2702V13.5202C30.4605 7.94133 25.9211 3.3952 20.3389 3.3952ZM20.3389 6.7702C24.1088 6.7702 27.0889 9.75033 27.0889 13.5202V20.2702C27.0889 24.0401 24.1088 27.0202 20.3389 27.0202C16.5724 27.0202 13.5889 24.0401 13.5889 20.2702V13.5202C13.5889 9.75033 16.5724 6.7702 20.3389 6.7702ZM39.0533 23.7026C38.7095 23.7165 38.3781 23.8351 38.1037 24.0426C37.8292 24.2501 37.6247 24.5366 37.5176 24.8636L35.3745 31.4347L28.4355 31.401C28.0784 31.3997 27.7301 31.5117 27.4407 31.721C27.1513 31.9302 26.9357 32.2259 26.8251 32.5655C26.7144 32.905 26.7143 33.2709 26.8248 33.6105C26.9352 33.9501 27.1506 34.2459 27.4399 34.4553L33.0491 38.5154L30.8723 45.0731C30.759 45.4122 30.7564 45.7784 30.8647 46.1191C30.9731 46.4598 31.1868 46.7573 31.4752 46.9686C31.7635 47.18 32.1115 47.2943 32.469 47.2951C32.8265 47.296 33.175 47.1832 33.4643 46.9732L39.0803 42.9131L44.6828 46.9968C44.9708 47.2065 45.3178 47.3195 45.674 47.3199C46.0303 47.3203 46.3775 47.2079 46.666 46.9988C46.9544 46.7898 47.1693 46.4948 47.2799 46.1562C47.3905 45.8175 47.391 45.4526 47.2815 45.1136L45.1384 38.5492L50.7679 34.5161C51.0591 34.3083 51.2767 34.0133 51.3894 33.6737C51.502 33.3342 51.5038 32.9676 51.3945 32.6269C51.2852 32.2863 51.0705 31.9892 50.7813 31.7785C50.4922 31.5679 50.1435 31.4545 49.7858 31.4549H42.8434L40.7273 24.8737C40.6147 24.5223 40.39 24.2175 40.0876 24.006C39.7853 23.7945 39.422 23.6879 39.0533 23.7026ZM39.114 30.8677L40.005 33.6588C40.1155 33.9977 40.3305 34.2929 40.6191 34.5021C40.9077 34.7112 41.2551 34.8237 41.6115 34.8232H44.5376L42.1751 36.5242C41.8836 36.7319 41.6656 37.027 41.5527 37.3667C41.4399 37.7065 41.438 38.0733 41.5474 38.4142L42.4485 41.1851L40.0826 39.4571C39.7943 39.2474 39.4469 39.1345 39.0904 39.1345C38.7339 39.1345 38.3865 39.2474 38.0981 39.4571L35.7188 41.1783L36.6334 38.4108C36.7472 38.0707 36.7497 37.7031 36.6405 37.3614C36.5312 37.0197 36.316 36.7217 36.0259 36.5107L33.6701 34.8063H36.5895C36.9475 34.808 37.2968 34.6957 37.5868 34.4858C37.8768 34.2759 38.0925 33.9792 38.2028 33.6386L39.114 30.8711V30.8677Z" fill="#407FC9"/>
</svg>
