<svg width="13" height="18" viewBox="0 0 13 18" fill="none" xmlns="http://www.w3.org/2000/svg">
<path d="M12.6179 3.03945L6.02978 8.90835L12.6179 14.7773C12.775 14.9172 12.8536 15.083 12.8536 15.2746C12.8536 15.4662 12.775 15.632 12.6179 15.772L10.5583 17.6067C10.4012 17.7467 10.2151 17.8167 10 17.8167C9.78495 17.8167 9.59884 17.7467 9.44169 17.6067L0.235732 9.40571C0.0785773 9.26572 0 9.09993 0 8.90835C0 8.71677 0.0785773 8.55098 0.235732 8.41098L9.44169 0.209998C9.59884 0.0699994 9.78495 0 10 0C10.2151 0 10.4012 0.0699994 10.5583 0.209998L12.6179 2.04472C12.775 2.18472 12.8536 2.35051 12.8536 2.54208C12.8536 2.73366 12.775 2.89945 12.6179 3.03945Z" fill="black"/>
</svg>
