<svg width="13" height="18" viewBox="0 0 13 18" fill="none" xmlns="http://www.w3.org/2000/svg">
<path d="M0.235649 3.03945L6.82374 8.90835L0.235649 14.7773C0.078495 14.9172 -8.29697e-05 15.083 -8.29697e-05 15.2746C-8.29697e-05 15.4662 0.078495 15.632 0.235649 15.772L2.2952 17.6067C2.45236 17.7467 2.63846 17.8167 2.85352 17.8167C3.06857 17.8167 3.25467 17.7467 3.41183 17.6067L12.6178 9.40571C12.7749 9.26572 12.8535 9.09993 12.8535 8.90835C12.8535 8.71677 12.7749 8.55098 12.6178 8.41098L3.41183 0.209998C3.25467 0.0699994 3.06857 0 2.85352 0C2.63846 0 2.45236 0.0699994 2.2952 0.209998L0.235649 2.04472C0.078495 2.18472 -8.29697e-05 2.35051 -8.29697e-05 2.54208C-8.29697e-05 2.73366 0.078495 2.89945 0.235649 3.03945Z" fill="black"/>
</svg>
